HIERARCHY
ROOT Hips
{
  OFFSET 2.26061 22.2878 23.7974
  CHANNELS 6 Xposition Yposition Zposition Zrotation Xrotation Yrotation
  JOINT LeftUpLeg
  {
    OFFSET 8.64259 1.95398 -2.38835
    CHANNELS 3 Zrotation Xrotation Yrotation
    JOINT LeftLeg
    {
      OFFSET 43.7702 0 0
      CHANNELS 3 Zrotation Xrotation Yrotation
      JOINT LeftFoot
      {
        OFFSET 40.6238 0 0
        CHANNELS 3 Zrotation Xrotation Yrotation
        JOINT LeftToeBase
        {
          OFFSET 12.7242 0 0
          CHANNELS 3 Zrotation Xrotation Yrotation
          End Site
          {
            OFFSET 0 0 0
          }
        }
      }
    }
  }
  JOINT RightUpLeg
  {
    OFFSET -8.2249 1.95398 -2.59336
    CHANNELS 3 Zrotation Xrotation Yrotation
    JOINT RightLeg
    {
      OFFSET 43.5653 0 0
      CHANNELS 3 Zrotation Xrotation Yrotation
      JOINT RightFoot
      {
        OFFSET 40.6238 0 0
        CHANNELS 3 Zrotation Xrotation Yrotation
        JOINT RightToeBase
        {
          OFFSET 12.7242 0 0
          CHANNELS 3 Zrotation Xrotation Yrotation
          End Site
          {
            OFFSET 0 0 0
          }
        }
      }
    }
  }
  JOINT Spine
  {
    OFFSET 0.165834 0.87714 6.61349
    CHANNELS 3 Zrotation Xrotation Yrotation
    JOINT Spine1
    {
      OFFSET 7.38963 1.71661e-005 0
      CHANNELS 3 Zrotation Xrotation Yrotation
      JOINT Spine2
      {
        OFFSET 11.9445 1.14441e-005 0
        CHANNELS 3 Zrotation Xrotation Yrotation
        JOINT Spine3
        {
          OFFSET 14.7254 4.19617e-005 0
          CHANNELS 3 Zrotation Xrotation Yrotation
          JOINT Spine4
          {
            OFFSET 10.9679 0 0
            CHANNELS 3 Zrotation Xrotation Yrotation
            JOINT RightShoulder
            {
              OFFSET 2.46616 -1.6653 3.69651
              CHANNELS 3 Zrotation Xrotation Yrotation
              JOINT RightArm
              {
                OFFSET 13.0012 0 0
                CHANNELS 3 Zrotation Xrotation Yrotation
                JOINT RightForeArm
                {
                  OFFSET 28.7848 1.52588e-005 0
                  CHANNELS 3 Zrotation Xrotation Yrotation
                  JOINT RightHand
                  {
                    OFFSET 26.5688 1.52588e-005 0
                    CHANNELS 3 Zrotation Xrotation Yrotation
                    End Site
                    {
                      OFFSET 0 0 0
                    }
                  }
                }
              }
            }
            JOINT LeftShoulder
            {
              OFFSET 2.38034 -1.29275 -3.7523
              CHANNELS 3 Zrotation Xrotation Yrotation
              JOINT LeftArm
              {
                OFFSET 16.3182 6.10351e-005 0
                CHANNELS 3 Zrotation Xrotation Yrotation
                JOINT LeftForeArm
                {
                  OFFSET 27.0901 0 0
                  CHANNELS 3 Zrotation Xrotation Yrotation
                  JOINT LeftHand
                  {
                    OFFSET 24.5451 1.52588e-005 0
                    CHANNELS 3 Zrotation Xrotation Yrotation
                    End Site
                    {
                      OFFSET 0 0 0
                    }
                  }
                }
              }
            }
            JOINT Neck
            {
              OFFSET 5.0226 -0.0266342 0
              CHANNELS 3 Zrotation Xrotation Yrotation
              JOINT Head
              {
                OFFSET 6.69363 2.86102e-005 0
                CHANNELS 3 Zrotation Xrotation Yrotation
                End Site
                {
                  OFFSET 0 0 0
                }
              }
            }
          }
        }
      }
    }
  }
}
MOTION
Frames:	9
Frame Time:	0.0416667
38.0055 96.4033 23.3152 169.807 -86.5931 169.774 -174.932 12.0202 88.9753 -21.1128 20.8481 1.19835 60.9224 2.99028 4.7746 29.2708 0.581897 -2.10014 176.498 12.0712 86.4623 -45.5697 -0.126049 -5.611 57.0592 -0.666047 -0.260592 40.1221 0.382095 -5.30838 0.316488 7.55089 -89.8805 11.7718 0.685622 0.165675 0.100969 0.692251 0.135333 -22.4353 0.604129 0.364082 -2.42263 0.604135 0.364083 92.5153 -54.1618 -96.2151 18.842 -5.2574 3.49401 -23.6593 -22.4332 -64.02 -8.55194 -0.867692 2.71647 -99.1725 -52.083 65.9327 -19.8108 6.21642 9.17367 7.97841 6.0467 -46.3906 14.1773 1.15557 4.18248 -3.0267 -1.5784 4.15479 5.51808 -2.21177 -3.42412 
39.1517 96.7258 24.818 -175.969 -87.3985 -175.075 -174.912 11.2748 89.1917 -20.4556 19.5608 1.42463 62.2148 3.9884 3.80876 27.8673 -0.577795 -1.28421 175.424 14.6629 86.3414 -45.2594 4.30765 -4.19194 56.5858 -0.526173 -0.147868 38.1532 0.309116 -8.88154 0.222698 7.53438 -89.9436 11.8051 0.469408 0.0624665 0.134269 0.471703 0.0417421 -22.4015 0.428931 0.200662 -2.38882 0.428931 0.200655 92.8154 -54.177 -95.7724 19.1494 -4.65259 3.39167 -20.8972 -22.3243 -60.7957 -7.16048 -0.817668 2.90301 -99.0737 -51.8343 65.9879 -18.2083 4.7632 8.0532 8.14602 4.37523 -50.6358 15.64 1.10739 3.1568 -3.24795 -7.62178 7.17757 4.37267 -8.6997 -7.26534 
39.8508 97.0459 26.0713 -141.931 -87.3824 -139.981 -174.41 10.54 89.8513 -19.6482 18.3997 1.41024 62.7653 4.32679 3.64555 27.9069 -0.556257 -1.20412 173.28 14.0437 86.2784 -36.1163 7.43383 -2.34036 58.8891 -0.96446 -0.455043 37.4992 0.321812 -9.5958 0.167881 7.52734 -90.0263 11.8193 0.321568 -0.0864594 0.14843 0.31746 -0.100539 -22.3871 0.332681 0.0141875 -2.3744 0.332687 0.014176 93.4181 -53.9966 -94.9153 19.0886 -4.54825 2.81436 -20.8547 -23.5704 -59.1525 -7.44236 -0.847855 3.06784 -99.0559 -51.5814 65.9265 -17.9939 4.33204 7.81403 7.63874 3.56697 -52.1929 18.3518 1.39348 3.74075 -3.32096 -12.2234 10.168 2.51745 -13.6433 -11.7267 
39.846 97.1462 27.2179 -110.99 -86.1985 -108.649 -173.583 10.2542 90.4653 -19.266 17.2391 0.964709 63.6386 4.66818 3.63083 27.8802 -0.585492 -1.12879 172.424 12.7536 86.2367 -25.428 8.45786 -1.3209 55.8913 0.058088 0.27817 37.3411 0.349193 -7.53234 0.146558 7.50004 -90.0082 11.8738 0.287637 -0.0471658 0.202908 0.285288 -0.0597931 -22.3325 0.288508 0.0414666 -2.31985 0.288513 0.0414559 93.7049 -53.4594 -94.5753 19.6943 -4.79698 2.36634 -20.1334 -24.376 -57.8971 -7.04536 -0.838667 3.15356 -99.5983 -51.9979 65.2983 -17.6976 4.80471 8.86729 7.69096 3.74385 -51.8257 17.3107 1.30231 3.64641 -2.60538 -16.1445 11.8058 -0.42195 -17.5559 -15.3726 
39.3375 97.2638 28.3328 -100.139 -85.1161 -97.9048 -173.455 9.3972 90.6088 -18.2071 16.5879 1.02234 63.8281 4.96239 4.10886 28.0708 -0.451392 -1.00276 171.755 11.5232 86.2219 -22.2622 9.27591 -0.604295 55.5867 0.268184 0.414782 37.0462 0.368498 -5.64689 0.0161277 7.46534 -89.8818 11.9431 0.0878258 0.226403 0.272092 0.0977042 0.2223 -22.2629 0.0157268 0.242322 -2.25026 0.0157204 0.242318 93.2859 -53.9008 -95.1253 19.4413 -5.60026 1.46962 -16.7866 -25.0135 -54.9781 -9.38583 -0.960728 3.53826 -99.2221 -52.155 65.887 -18.7013 4.90825 10.0342 9.23873 5.85245 -49.0469 14.2947 1.08237 3.62439 -2.38273 -20.5088 12.6661 -4.46566 -21.4705 -19.0813 
38.9081 97.4207 29.3044 -94.6072 -84.4866 -91.6713 -173.047 9.11372 91.5316 -18.036 16.0433 1.13536 64.2616 5.17386 3.67218 28.334 -0.247445 -0.997187 171.465 9.63068 86.8639 -19.2086 8.31292 -0.0704797 55.1518 0.484926 0.575567 37.7428 0.373593 -6.09419 -0.0460353 7.44623 -89.9219 11.9814 -0.0546354 0.16172 0.310476 -0.0474623 0.163962 -22.2246 -0.100713 0.137823 -2.21197 -0.100715 0.13782 93.2329 -53.7831 -95.2221 19.1589 -5.76738 0.902691 -16.0872 -26.8728 -52.9399 -8.16335 -0.942544 3.89608 -99.6342 -52.071 65.2728 -20.6991 6.0471 10.8865 6.31595 5.23252 -42.8476 13.3631 0.868199 2.55952 -3.17369 -24.5728 12.3273 -6.91256 -24.9813 -22.3532 
38.4058 97.4283 30.0255 -88.6702 -83.7031 -85.8313 -172.718 8.85373 91.8154 -17.3246 15.8007 0.941161 64.3007 5.24063 3.87195 29.0462 0.418306 -2.17623 171.806 8.5675 87.3445 -17.0411 8.99442 -0.240171 56.092 0.250703 0.39531 36.834 0.376055 -5.47476 -0.0156223 7.40225 -89.9066 12.0695 0.0131048 0.18461 0.398568 0.0212174 0.183852 -22.1365 -0.0429909 0.180011 -2.12387 -0.0429862 0.180012 93.4874 -54.4005 -94.7521 18.3154 -5.41837 0.554549 -15.0028 -26.9372 -51.3162 -7.5703 -0.927472 4.1271 -99.9832 -52.1502 64.8056 -22.0368 7.741 11.4797 5.34917 6.58749 -38.2813 12.0402 0.759829 2.34808 -3.08578 -25.5005 11.0734 -6.48234 -25.8721 -22.2111 
37.9767 97.4232 30.472 -85.7943 -83.748 -83.385 -172.559 8.54716 91.743 -16.6703 16.3815 0.702015 64.0445 5.13381 4.26687 29.6725 0.930072 -2.59933 171.834 8.01348 87.3007 -16.0587 9.53067 -0.36165 56.7678 0.0888624 0.272984 36.551 0.375675 -5.26957 -0.00646898 7.35193 -89.8973 12.1699 0.0358108 0.201041 0.498949 0.0446209 0.199267 -22.0361 -0.026261 0.202525 -2.02344 -0.0262731 0.202503 93.5932 -54.3953 -94.5969 18.2668 -4.92932 0.768064 -13.8372 -27.0194 -49.4637 -7.72516 -0.97553 4.67718 -99.7025 -52.2762 65.2476 -22.8183 7.92447 11.8716 5.35718 7.76589 -35.8558 10.9382 0.799684 3.25482 -1.72551 -19.8203 8.54282 -2.93906 -20.6625 -17.1858 
37.6397 97.4113 30.7449 -84.8826 -84.4665 -82.6032 -172.677 8.4467 91.7759 -16.7376 16.7724 0.851996 64.325 5.22041 3.89393 29.4609 0.738834 -2.23878 171.769 7.71266 87.3155 -16.216 10.3035 -0.275553 57.6556 -0.228042 0.0432645 35.819 0.373703 -4.72527 0.068745 7.30995 -89.9678 12.254 0.151946 0.0472036 0.583024 0.153879 0.0404587 -21.9522 0.130736 0.0906804 -1.93953 0.13074 0.0906924 93.7951 -54.2526 -94.3219 17.9086 -4.89687 1.60765 -12.3543 -26.1695 -48.2457 -7.39343 -0.95918 4.86214 -99.4605 -52.0378 65.5081 -23.1013 7.47339 12.0878 5.33717 7.63556 -35.3619 11.0364 0.808732 3.26883 0.00137848 -8.91625 2.25276 1.51249 -9.35342 -5.72811 
